<svg width="240" height="72" viewBox="0 0 240 72" fill="none" xmlns="http://www.w3.org/2000/svg">
  <path d="M18.918 50.804C18.918 50.804 26.942 56 38.76 56C48.76 56 56.822 53.066 64.44 46.9C65.642 45.93 64.56 44.59 63.238 45.36C57.142 48.926 49.606 51.09 41.978 51.09C33.704 51.09 24.418 48.032 19.226 42.944C18.222 41.966 17.244 42.214 18.918 50.804Z" fill="#FF9900"/>
  <path d="M62.59 42.73C61.05 41.01 52.39 41.92 48.5 42.39C47.32 42.53 47.14 41.5 48.23 40.73C55.27 35.8 66.81 37.22 68.15 38.85C69.5 40.5 67.8 52.02 61.2 57.51C60.18 58.35 59.21 57.9 59.66 56.77C61.14 53.08 64.41 44.43 62.59 42.73Z" fill="#FF9900"/>
  <path d="M95.3138 41.2C95.3138 42.88 95.3578 44.28 96.1058 45.328C96.3698 45.68 96.4138 46.12 96.0838 46.384C95.1158 47.176 93.4138 48.614 92.4678 49.428C92.0718 49.78 91.4778 49.802 91.0378 49.362C90.1578 48.438 89.3358 47.462 88.6318 46.428C85.8858 49.23 83.9438 50.068 80.3738 50.068C76.1438 50.068 72.8518 47.454 72.8518 42.208C72.8518 38.11 75.0918 35.346 78.2738 34.004C81.0598 32.838 84.9558 32.618 87.9618 32.266V31.254C87.9618 29.406 88.1158 27.222 86.9938 25.66C86.0258 24.252 84.2038 23.68 82.6238 23.68C79.7058 23.68 77.1118 25.176 76.4738 28.284C76.3418 28.966 75.8578 29.626 75.1758 29.648L70.5058 29.142C69.9118 29.01 69.2518 28.526 69.4278 27.58C70.7918 20.3 77.3318 18.12 83.1738 18.12C86.1578 18.12 90.0478 18.912 92.3798 21.17C95.3138 23.96 95.3138 27.668 95.3138 31.65V41.2ZM87.9618 37.338C87.9618 40.39 88.0278 42.958 86.4878 45.682C85.2338 47.882 83.2618 49.23 81.1138 49.23C78.1638 49.23 76.4298 46.978 76.4298 43.654C76.4298 37.118 82.2938 35.918 87.9618 35.918V37.338Z" fill="#111111"/>
  <path d="M104.396 46L98.4761 31.56H102.956L106.556 40.68L110.316 31.56H114.396L108.476 46H104.396ZM119.238 46V25.28H123.558V46H119.238ZM134.57 46.32C129.65 46.32 126.17 43.24 126.17 38.72C126.17 34.24 129.57 31.2 134.21 31.2C138.57 31.2 141.85 33.92 141.85 38.64C141.85 38.96 141.81 39.4 141.77 39.76H130.53C130.93 41.6 132.49 42.56 134.73 42.56C136.29 42.56 137.41 42.08 138.49 41.12L140.77 43.6C139.45 45.12 137.45 46.32 134.57 46.32ZM130.47 37.32H137.79C137.49 35.44 136.43 34.4 134.15 34.4C131.91 34.4 130.77 35.4 130.47 37.32ZM144.729 46V31.56H148.849V33.28C149.849 31.96 151.249 31.2 153.049 31.2C156.209 31.2 158.169 33.4 158.169 36.96V46H153.849V37.76C153.849 35.92 152.849 34.84 151.249 34.84C149.649 34.84 149.049 35.92 149.049 37.76V46H144.729ZM168.161 46.32C163.601 46.32 160.241 43.08 160.241 38.72C160.241 34.36 163.601 31.2 168.161 31.2C172.721 31.2 176.041 34.36 176.041 38.72C176.041 43.08 172.721 46.32 168.161 46.32ZM168.161 42.72C170.201 42.72 171.681 41.2 171.681 38.72C171.681 36.24 170.201 34.8 168.161 34.8C166.081 34.8 164.601 36.24 164.601 38.72C164.601 41.2 166.081 42.72 168.161 42.72ZM183.853 46.32C180.533 46.32 178.573 44.64 178.573 41.24V35.12H176.013V31.56H178.573V27.92H182.893V31.56H187.013V35.12H182.893V41.2C182.893 42.48 183.573 43.08 184.733 43.08C185.373 43.08 185.973 42.88 186.413 42.56L187.573 45.6C186.693 46.08 185.413 46.32 183.853 46.32ZM189.733 44.68L191.173 41.56C192.493 42.32 194.493 42.84 196.373 42.84C198.373 42.84 199.133 42.32 199.133 41.52C199.133 39.24 190.133 41.58 190.133 36.04C190.133 33.4 192.533 31.2 196.613 31.2C199.013 31.2 201.653 31.72 203.053 32.64L201.613 35.72C200.173 34.92 198.733 34.64 196.613 34.64C194.693 34.64 193.813 35.24 193.813 35.96C193.813 38.36 202.813 36.08 202.813 41.52C202.813 44.12 200.373 46.32 196.133 46.32C193.173 46.32 190.453 45.64 189.733 44.68Z" fill="#111111"/>
</svg>
