<svg width="240" height="72" viewBox="0 0 240 72" fill="none" xmlns="http://www.w3.org/2000/svg">
  <path d="M35.578 41.64C35.578 47.246 31.006 50.726 24.85 50.726C18.54 50.726 14 46.438 14 39.902C14 33.524 18.446 29.142 24.568 29.142C30.502 29.142 34.886 33.272 34.886 39.524C34.886 40.216 34.824 40.94 34.73 41.64H19.934C20.468 44.806 22.764 46.564 25.808 46.564C27.916 46.564 29.736 45.902 31.242 44.554L34.128 47.688C32.056 49.57 29.266 50.726 25.462 50.726C18.886 50.726 14.158 46.624 14.158 39.934C14.158 33.462 18.698 29.142 24.568 29.142C30.282 29.142 35.578 33.084 35.578 41.64ZM20.028 37.868H29.768C29.36 34.954 27.444 33.146 24.694 33.146C21.882 33.146 20.436 34.922 20.028 37.868Z" fill="#E53238"/>
  <path d="M51.3068 50.6C48.0528 50.6 45.4928 49.382 43.7968 47.404V50.128H38.3468V20.4H44.0488V31.032C45.7768 29.21 48.2108 28.118 51.2128 28.118C57.7148 28.118 62.4448 32.5 62.4448 39.368C62.4448 46.236 57.7148 50.6 51.3068 50.6ZM50.3328 45.902C53.6148 45.902 56.6808 43.544 56.6808 39.368C56.6808 35.192 53.6148 32.834 50.3328 32.834C47.0188 32.834 43.9528 35.192 43.9528 39.368C43.9528 43.544 47.0188 45.902 50.3328 45.902Z" fill="#0064D2"/>
  <path d="M87.9335 37.458V50.128H82.5775V47.372C81.3835 49.382 79.0715 50.6 75.7855 50.6C70.4915 50.6 67.3215 47.688 67.3215 43.796C67.3215 39.84 70.1175 37.052 76.9795 37.052H82.2015C82.2015 34.232 80.5055 32.594 76.9795 32.594C74.5735 32.594 72.0935 33.398 70.4295 34.73L68.3875 30.744C70.8995 28.962 74.6035 28.118 77.7655 28.118C84.0335 28.118 87.9335 31.032 87.9335 37.458ZM82.2015 43.23V40.966H77.6995C74.6355 40.966 73.6735 42.096 73.6735 43.608C73.6735 45.278 75.0975 46.394 77.4795 46.394C79.7295 46.394 81.6655 45.372 82.2015 43.23Z" fill="#F5AF02"/>
  <path d="M115.487 28.398L105.779 51.218C103.695 56.448 100.697 58.024 96.9454 58.024C94.7894 58.024 92.4434 57.306 91.0274 56.088L93.1314 52.028C94.1034 52.88 95.4874 53.41 96.7574 53.41C98.4854 53.41 99.4714 52.66 100.285 50.726L100.379 50.506L90.9774 28.398H96.8514L103.255 43.86L109.721 28.398H115.487Z" fill="#86B817"/>
  <path d="M130.447 46H124.607V30.96H118.657V26H136.397V30.96H130.447V46ZM138.499 46V31.56H142.619V33.28C143.619 31.96 145.019 31.2 146.819 31.2C149.979 31.2 151.939 33.4 151.939 36.96V46H147.619V37.76C147.619 35.92 146.619 34.84 145.019 34.84C143.419 34.84 142.819 35.92 142.819 37.76V46H138.499ZM162.431 46.32C157.511 46.32 154.031 43.24 154.031 38.72C154.031 34.24 157.431 31.2 162.071 31.2C166.431 31.2 169.711 33.92 169.711 38.64C169.711 38.96 169.671 39.4 169.631 39.76H158.391C158.791 41.6 160.351 42.56 162.591 42.56C164.151 42.56 165.271 42.08 166.351 41.12L168.631 43.6C167.311 45.12 165.311 46.32 162.431 46.32ZM158.331 37.32H165.651C165.351 35.44 164.291 34.4 162.011 34.4C159.771 34.4 158.631 35.4 158.331 37.32ZM172.59 46V31.56H176.71V33.28C177.71 31.96 179.07 31.2 180.91 31.2C182.91 31.2 184.55 31.96 185.51 33.56C186.59 32.08 188.31 31.2 190.43 31.2C193.67 31.2 195.71 33.08 195.71 36.96V46H191.39V37.64C191.39 35.88 190.63 34.84 189.11 34.84C187.67 34.84 186.83 35.76 186.83 37.52V46H182.51V37.64C182.51 35.88 181.79 34.84 180.23 34.84C178.83 34.84 177.91 35.76 177.91 37.52V46H172.59Z" fill="#111827"/>
</svg>
