<svg width="240" height="72" viewBox="0 0 240 72" fill="none" xmlns="http://www.w3.org/2000/svg">
  <rect x="6" y="12" width="48" height="48" rx="12" fill="#95BF47"/>
  <path d="M21 29.5C21 24.8056 24.8056 21 29.5 21H30.8C35.4944 21 39.3 24.8056 39.3 29.5V31H34.9V29.8C34.9 27.149 32.751 25 30.1 25H30.2C27.549 25 25.4 27.149 25.4 29.8V31H21V29.5Z" fill="white"/>
  <path d="M18 31H42L39.5 52H20.5L18 31Z" fill="white"/>
  <path d="M26.8226 45.731C27.7626 46.267 29.1246 46.641 30.4966 46.641C31.8326 46.641 32.5426 46.115 32.5426 45.351C32.5426 44.617 31.9766 44.197 30.5446 43.701C28.5826 43.021 27.3046 41.943 27.3046 40.217C27.3046 38.191 29.0006 36.643 31.8026 36.643C33.4206 36.643 34.5946 36.977 35.3966 37.357L34.7226 39.785C34.1966 39.523 33.2506 39.165 31.7366 39.165C30.5626 39.165 29.9966 39.701 29.9966 40.237C29.9966 40.981 30.6466 41.305 32.2666 41.913C34.3526 42.685 35.3226 43.773 35.3226 45.411C35.3226 47.401 33.7906 49.163 30.3446 49.163C28.7166 49.163 27.1166 48.735 26.3246 48.209L26.8226 45.731Z" fill="#95BF47"/>
  <path d="M71 46V26H80.1C84.84 26 87.48 28.76 87.48 32.6C87.48 36.44 84.84 39.2 80.1 39.2H75.5V46H71ZM75.5 35.12H79.54C81.94 35.12 83 34 83 32.6C83 31.16 81.94 30.08 79.54 30.08H75.5V35.12ZM90.1148 46V25.28H94.4348V32.96C95.3948 31.8 96.7548 31.2 98.3948 31.2C101.555 31.2 103.515 33.4 103.515 36.96V46H99.1948V37.76C99.1948 35.92 98.1948 34.84 96.5948 34.84C94.9548 34.84 94.4348 35.92 94.4348 37.76V46H90.1148ZM113.127 46.32C108.567 46.32 105.207 43.08 105.207 38.72C105.207 34.36 108.567 31.2 113.127 31.2C117.687 31.2 121.007 34.36 121.007 38.72C121.007 43.08 117.687 46.32 113.127 46.32ZM113.127 42.72C115.167 42.72 116.647 41.2 116.647 38.72C116.647 36.24 115.167 34.8 113.127 34.8C111.047 34.8 109.567 36.24 109.567 38.72C109.567 41.2 111.047 42.72 113.127 42.72ZM128.819 46.32C125.499 46.32 123.539 44.64 123.539 41.24V35.12H120.979V31.56H123.539V27.92H127.859V31.56H131.979V35.12H127.859V41.2C127.859 42.48 128.539 43.08 129.699 43.08C130.339 43.08 130.939 42.88 131.379 42.56L132.539 45.6C131.659 46.08 130.379 46.32 128.819 46.32ZM141.408 46.32C136.848 46.32 133.488 43.08 133.488 38.72C133.488 34.36 136.848 31.2 141.408 31.2C145.968 31.2 149.288 34.36 149.288 38.72C149.288 43.08 145.968 46.32 141.408 46.32ZM141.408 42.72C143.448 42.72 144.928 41.2 144.928 38.72C144.928 36.24 143.448 34.8 141.408 34.8C139.328 34.8 137.848 36.24 137.848 38.72C137.848 41.2 139.328 42.72 141.408 42.72ZM152.004 46V31.56H156.124V33.28C157.124 31.96 158.524 31.2 160.324 31.2C163.484 31.2 165.444 33.4 165.444 36.96V46H161.124V37.76C161.124 35.92 160.124 34.84 158.524 34.84C156.924 34.84 156.324 35.92 156.324 37.76V46H152.004ZM168.33 44.68L169.77 41.56C171.09 42.32 173.09 42.84 174.97 42.84C176.97 42.84 177.73 42.32 177.73 41.52C177.73 39.24 168.73 41.58 168.73 36.04C168.73 33.4 171.13 31.2 175.21 31.2C177.61 31.2 180.25 31.72 181.65 32.64L180.21 35.72C178.77 34.92 177.33 34.64 175.21 34.64C173.29 34.64 172.41 35.24 172.41 35.96C172.41 38.36 181.41 36.08 181.41 41.52C181.41 44.12 178.97 46.32 174.73 46.32C171.77 46.32 169.05 45.64 168.33 44.68Z" fill="#111827"/>
</svg>
