<svg width="240" height="72" viewBox="0 0 240 72" fill="none" xmlns="http://www.w3.org/2000/svg">
  <rect x="8" y="12" width="50" height="50" rx="14" fill="#111111"/>
  <path d="M34.8 24V41.8C34.8 46.16 31.56 49.2 27.4 49.2C23.2 49.2 20 46.16 20 42.08C20 37.84 23.28 34.96 27.04 34.96C28.04 34.96 29.08 35.16 29.76 35.48V39.16C29.12 38.8 28.32 38.56 27.4 38.56C25.52 38.56 24.16 39.88 24.16 41.76C24.16 43.72 25.52 45.04 27.4 45.04C29.32 45.04 30.64 43.72 30.64 41.76V24H34.8Z" fill="#25F4EE"/>
  <path d="M38.64 27.48C40 30.12 42.16 31.72 45.24 32.16V36.12C42.8 36.04 40.64 35.44 38.64 34.2V45.56C38.64 49.96 35.44 53 31.2 53C29.4 53 27.8 52.52 26.48 51.64C28.04 52.04 29.88 51.8 31.24 50.96C33.24 49.8 34.48 47.72 34.48 45.56V24H38.64V27.48Z" fill="#FE2C55" fill-opacity="0.85"/>
  <path d="M34.16 23V39.8C34.16 44.16 30.92 47.2 26.76 47.2C22.56 47.2 19.36 44.16 19.36 40.08C19.36 35.84 22.64 32.96 26.4 32.96C27.4 32.96 28.44 33.16 29.12 33.48V37.16C28.48 36.8 27.68 36.56 26.76 36.56C24.88 36.56 23.52 37.88 23.52 39.76C23.52 41.72 24.88 43.04 26.76 43.04C28.68 43.04 30 41.72 30 39.76V23H34.16ZM38 26.48C39.36 29.12 41.52 30.72 44.6 31.16V35.12C42.16 35.04 40 34.44 38 33.2V26.48Z" fill="white"/>
  <path d="M79 46V26H83.5V34.02H92.38V26H96.88V46H92.38V37.72H83.5V46H79ZM107.657 46.32C103.097 46.32 99.7366 43.08 99.7366 38.72C99.7366 34.36 103.097 31.2 107.657 31.2C112.217 31.2 115.537 34.36 115.537 38.72C115.537 43.08 112.217 46.32 107.657 46.32ZM107.657 42.72C109.697 42.72 111.177 41.2 111.177 38.72C111.177 36.24 109.697 34.8 107.657 34.8C105.577 34.8 104.097 36.24 104.097 38.72C104.097 41.2 105.577 42.72 107.657 42.72ZM118.253 46V25.28H122.573V46H118.253ZM132.265 46.32C127.705 46.32 124.345 43.08 124.345 38.72C124.345 34.36 127.705 31.2 132.265 31.2C136.825 31.2 140.145 34.36 140.145 38.72C140.145 43.08 136.825 46.32 132.265 46.32ZM132.265 42.72C134.305 42.72 135.785 41.2 135.785 38.72C135.785 36.24 134.305 34.8 132.265 34.8C130.185 34.8 128.705 36.24 128.705 38.72C128.705 41.2 130.185 42.72 132.265 42.72ZM149.95 51.2C147.55 51.2 145.11 50.6 143.55 49.48L145.27 46.36C146.43 47.24 148.11 47.76 149.71 47.76C152.27 47.76 153.43 46.6 153.43 44.4V43.64C152.35 44.84 150.87 45.44 149.03 45.44C145.03 45.44 141.79 42.68 141.79 38.2C141.79 33.72 145.03 31.2 149.03 31.2C151.03 31.2 152.59 31.88 153.67 33.28V31.56H157.79V43.6C157.79 48.96 154.91 51.2 149.95 51.2ZM149.87 41.88C152.07 41.88 153.55 40.56 153.55 38.2C153.55 35.84 152.07 34.72 149.87 34.72C147.63 34.72 146.15 35.84 146.15 38.2C146.15 40.56 147.63 41.88 149.87 41.88ZM160.949 46V31.56H165.269V46H160.949ZM163.109 29.56C161.509 29.56 160.389 28.52 160.389 27.12C160.389 25.72 161.509 24.68 163.109 24.68C164.709 24.68 165.829 25.64 165.829 27C165.829 28.48 164.709 29.56 163.109 29.56ZM176.061 46.32C171.141 46.32 167.661 43.24 167.661 38.72C167.661 34.24 171.061 31.2 175.701 31.2C180.061 31.2 183.341 33.92 183.341 38.64C183.341 38.96 183.301 39.4 183.261 39.76H172.021C172.421 41.6 173.981 42.56 176.221 42.56C177.781 42.56 178.901 42.08 179.981 41.12L182.261 43.6C180.941 45.12 178.941 46.32 176.061 46.32ZM171.961 37.32H179.281C178.981 35.44 177.921 34.4 175.641 34.4C173.401 34.4 172.261 35.4 171.961 37.32Z" fill="#111827"/>
</svg>
