<svg width="240" height="72" viewBox="0 0 240 72" fill="none" xmlns="http://www.w3.org/2000/svg">
  <rect x="6" y="16" width="72" height="40" rx="14" fill="#7F54B3"/>
  <path d="M24.16 43L20.44 29.4H24.76L27.12 38.84L29.64 29.4H33.48L35.88 38.92L38.36 29.4H42.36L38.64 43H34.2L31.44 33L28.56 43H24.16Z" fill="white"/>
  <path d="M48.8206 43.24C44.6206 43.24 41.5406 40.32 41.5406 36.2C41.5406 32.08 44.6206 29.2 48.8206 29.2C53.0206 29.2 56.1006 32.08 56.1006 36.2C56.1006 40.32 53.0206 43.24 48.8206 43.24ZM48.8206 39.88C50.5006 39.88 51.9806 38.64 51.9806 36.2C51.9806 33.76 50.5006 32.56 48.8206 32.56C47.1006 32.56 45.6606 33.76 45.6606 36.2C45.6606 38.64 47.1006 39.88 48.8206 39.88Z" fill="white"/>
  <path d="M94 26H99L103.6 40.48L108.36 26H112.84L117.44 40.6L122.2 26H126.84L120.24 46H115.32L110.6 31.48L105.72 46H100.8L94 26ZM129.097 46V31.56H133.217V33.28C134.217 31.96 135.617 31.2 137.417 31.2C140.577 31.2 142.537 33.4 142.537 36.96V46H138.217V37.76C138.217 35.92 137.217 34.84 135.617 34.84C134.017 34.84 133.417 35.92 133.417 37.76V46H129.097ZM152.029 46.32C147.469 46.32 144.109 43.08 144.109 38.72C144.109 34.36 147.469 31.2 152.029 31.2C156.589 31.2 159.909 34.36 159.909 38.72C159.909 43.08 156.589 46.32 152.029 46.32ZM152.029 42.72C154.069 42.72 155.549 41.2 155.549 38.72C155.549 36.24 154.069 34.8 152.029 34.8C149.949 34.8 148.469 36.24 148.469 38.72C148.469 41.2 149.949 42.72 152.029 42.72ZM169.541 46.32C164.981 46.32 161.621 43.08 161.621 38.72C161.621 34.36 164.981 31.2 169.541 31.2C174.101 31.2 177.421 34.36 177.421 38.72C177.421 43.08 174.101 46.32 169.541 46.32ZM169.541 42.72C171.581 42.72 173.061 41.2 173.061 38.72C173.061 36.24 171.581 34.8 169.541 34.8C167.461 34.8 165.981 36.24 165.981 38.72C165.981 41.2 167.461 42.72 169.541 42.72ZM180.137 46V31.56H184.257V33.28C185.257 31.96 186.617 31.2 188.457 31.2C190.457 31.2 192.097 31.96 193.057 33.56C194.137 32.08 195.857 31.2 197.977 31.2C201.217 31.2 203.257 33.08 203.257 36.96V46H198.937V37.64C198.937 35.88 198.177 34.84 196.657 34.84C195.217 34.84 194.377 35.76 194.377 37.52V46H190.057V37.64C190.057 35.88 189.337 34.84 187.777 34.84C186.377 34.84 185.457 35.76 185.457 37.52V46H180.137ZM214.03 46.32C209.11 46.32 205.63 43.24 205.63 38.72C205.63 34.24 209.03 31.2 213.67 31.2C218.03 31.2 221.31 33.92 221.31 38.64C221.31 38.96 221.27 39.4 221.23 39.76H209.99C210.39 41.6 211.95 42.56 214.19 42.56C215.75 42.56 216.87 42.08 217.95 41.12L220.23 43.6C218.91 45.12 216.91 46.32 214.03 46.32ZM209.93 37.32H217.25C216.95 35.44 215.89 34.4 213.61 34.4C211.37 34.4 210.23 35.4 209.93 37.32Z" fill="#111827"/>
</svg>
